<svg width="512" height="512" viewBox="0 0 512 512" fill="none" xmlns="http://www.w3.org/2000/svg">
<path d="M429.663 220.517C429.663 220.469 429.669 220.421 429.669 220.372C429.669 190.871 351.915 0 256 0C160.085 0 82.331 190.871 82.331 220.372C82.331 220.42 82.337 220.468 82.337 220.517C82.337 220.562 82.331 220.608 82.331 220.653C82.331 248.134 199.428 392.602 256 392.602C311.356 392.602 429.669 248.134 429.669 220.653C429.669 220.606 429.663 220.559 429.663 220.513C429.663 220.514 429.663 220.515 429.663 220.517Z" fill="#135370"/>
<path d="M372.039 216.611H352.315V159.409H372.039C382.203 159.409 390.443 167.649 390.443 177.813V198.207C390.443 208.372 382.203 216.611 372.039 216.611Z" fill="#9F5F31"/>
<path d="M139.961 216.611H159.685V159.409H139.961C129.797 159.409 121.557 167.649 121.557 177.813V198.207C121.557 208.372 129.796 216.611 139.961 216.611Z" fill="#9F5F31"/>
<path d="M323.186 318.475L310.744 315.974C301.916 314.2 295.564 306.445 295.564 297.44V279.514H214.182V297.893C214.182 306.898 207.831 314.653 199.002 316.427L188.813 318.475V386.907H323.185V318.475H323.186V318.475Z" fill="#B67647"/>
<path d="M256 293.007C197.246 293.007 149.616 245.377 149.616 186.623V156.726C149.616 97.972 197.246 50.342 256 50.342C314.754 50.342 362.384 97.972 362.384 156.726V186.623C362.384 245.377 314.754 293.007 256 293.007Z" fill="#B67547"/>
<path d="M256 50.342C246.399 50.342 237.098 51.621 228.25 54.006C273.546 66.213 306.884 107.573 306.884 156.726V186.623C306.884 235.776 273.546 277.135 228.25 289.343C237.098 291.727 246.399 293.007 256 293.007C314.754 293.007 362.384 245.377 362.384 186.623V156.726C362.384 97.972 314.754 50.342 256 50.342Z" fill="#9F5F31"/>
<path d="M256 159.883C351.757 159.883 429.409 193.062 429.663 220.517C429.663 220.469 429.669 220.421 429.669 220.372C429.669 190.871 351.915 0 256 0C160.085 0 82.331 190.871 82.331 220.372C82.331 220.42 82.337 220.468 82.337 220.517C82.591 193.062 160.243 159.883 256 159.883Z" fill="#1E608B"/>
<path d="M256 0C247.555 0 239.251 1.486 231.128 4.205C293.071 24.94 344.46 117.734 367.259 175.98C405.284 188.105 429.521 205.201 429.663 220.517C429.663 220.469 429.669 220.421 429.669 220.372C429.669 190.871 351.915 0 256 0Z" fill="#135370"/>
<path d="M490.51 500.388C485.885 466.378 467.087 367.758 402.521 341.85L328.878 318.889H183.122L109.48 341.85C44.914 367.758 26.115 466.377 21.49 500.388C20.654 506.534 25.447 512 31.65 512H480.35C486.553 512 491.346 506.534 490.51 500.388Z" fill="#1E608B"/>
<path d="M490.51 500.388C485.885 466.378 467.087 367.758 402.521 341.85L328.878 318.889H272.175L345.818 341.85C424.224 373.312 435.139 512 435.139 512H480.35C486.553 512 491.346 506.534 490.51 500.388Z" fill="#135370"/>
<path d="M401.596 315.163H110.404C100.74 315.163 92.906 322.997 92.906 332.661V498.59H419.095V332.661C419.094 322.997 411.26 315.163 401.596 315.163Z" fill="#CFCFCF"/>
<path d="M401.597 315.163H346.097C355.761 315.163 363.595 322.997 363.595 332.661V498.59H419.095V332.661C419.094 322.997 411.26 315.163 401.597 315.163Z" fill="#C2C4C6"/>
<path d="M429.621 485.575H82.379C75.794 485.575 70.456 490.913 70.456 497.498V500.077C70.456 506.662 75.794 512 82.379 512H429.621C436.206 512 441.544 506.662 441.544 500.077V497.498C441.544 490.913 436.206 485.575 429.621 485.575Z" fill="#9C9DA0"/>
<path d="M429.621 485.575H385.7V512H429.621C436.206 512 441.544 506.662 441.544 500.077V497.498C441.544 490.913 436.206 485.575 429.621 485.575Z" fill="#8D8F93"/>
<path d="M282.501 187.978C263.26 180.845 248.904 180.785 229.499 187.978C230.885 190.806 231.577 192.221 232.963 195.049C233.354 195.848 233.791 196.619 234.244 197.38C250.78 191.71 261.347 191.724 277.869 197.435C279.721 193.653 280.648 191.761 282.501 187.978Z" fill="#4D4D4D"/>
<path d="M362.384 186.623V181.059H325.819V188.933C325.819 189.823 325.867 190.707 325.937 191.59H362.268C362.342 189.944 362.384 188.289 362.384 186.623Z" fill="#4D4D4D"/>
<path d="M149.616 181.06V186.624C149.616 188.29 149.668 189.944 149.744 191.591H186.181V181.06H149.616Z" fill="#4D4D4D"/>
<path d="M225.485 215.299H186.079C181.738 215.299 178.219 211.78 178.219 207.439V185.006C178.219 180.665 181.738 177.146 186.079 177.146H235.197C239.538 177.146 243.057 180.665 243.057 185.006V197.727C243.057 207.432 235.19 215.299 225.485 215.299Z" fill="#4D4D4D"/>
<path d="M286.515 215.299H325.921C330.262 215.299 333.781 211.78 333.781 207.439V185.006C333.781 180.665 330.262 177.146 325.921 177.146H276.803C272.462 177.146 268.943 180.665 268.943 185.006V197.727C268.943 207.432 276.81 215.299 286.515 215.299Z" fill="#4D4D4D"/>
<path d="M325.921 177.145H278.208V213.211C280.682 214.541 283.509 215.299 286.515 215.299H325.921C330.262 215.299 333.781 211.78 333.781 207.439V185.006C333.781 180.665 330.262 177.145 325.921 177.145Z" fill="#353535"/>
<path d="M235.197 177.145H187.458V215.299H225.485C235.19 215.299 243.057 207.432 243.057 197.727V185.006C243.057 180.665 239.538 177.145 235.197 177.145Z" fill="#353535"/>
<path d="M224.472 383.88H227.472V380.88H224.472V383.88ZM220.312 425.416L218.224 423.262L218.216 423.27L218.207 423.278L220.312 425.416ZM196.696 425.16L194.637 427.342L194.645 427.349L194.652 427.356L196.696 425.16ZM192.152 412.808V409.808H189.152V412.808H192.152ZM204.568 412.808L207.568 412.772L207.532 409.808H204.568V412.808ZM211.928 383.88V380.88H208.928V383.88H211.928ZM221.472 383.88V413.768H227.472V383.88H221.472ZM221.472 413.768C221.472 418.3 220.247 421.301 218.224 423.262L222.4 427.57C225.923 424.155 227.472 419.391 227.472 413.768H221.472ZM218.207 423.278C216.174 425.28 213.232 426.448 208.984 426.448V432.448C214.379 432.448 218.989 430.928 222.417 427.554L218.207 423.278ZM208.984 426.448C204.447 426.448 201.14 425.197 198.74 422.964L194.652 427.356C198.396 430.84 203.281 432.448 208.984 432.448V426.448ZM198.755 422.978C196.488 420.839 195.152 417.611 195.152 412.808H189.152C189.152 418.757 190.845 423.763 194.637 427.342L198.755 422.978ZM192.152 415.808H204.568V409.808H192.152V415.808ZM201.568 412.844C201.593 414.889 201.972 416.954 203.159 418.569C204.473 420.357 206.417 421.12 208.472 421.12V415.12C208.177 415.12 208.057 415.069 208.038 415.061C208.036 415.06 208.028 415.062 207.993 415.015C207.879 414.859 207.586 414.268 207.568 412.772L201.568 412.844ZM208.472 421.12C210.294 421.12 212.131 420.512 213.413 418.898C214.591 417.415 214.928 415.535 214.928 413.768H208.928C208.928 414.902 208.689 415.198 208.715 415.166C208.744 415.129 208.795 415.094 208.823 415.082C208.832 415.078 208.738 415.12 208.472 415.12V421.12ZM214.928 413.768V383.88H208.928V413.768H214.928ZM211.928 386.88H224.472V380.88H211.928V386.88ZM275.863 383.88L278.699 384.858L280.07 380.88H275.863V383.88ZM260.311 429V432H262.45L263.147 429.978L260.311 429ZM244.247 429L241.412 429.981L242.111 432H244.247V429ZM228.631 383.88V380.88H224.418L225.796 384.861L228.631 383.88ZM242.071 383.88L244.933 382.98L244.273 380.88H242.071V383.88ZM252.311 416.456L249.449 417.356L252.32 426.489L255.175 417.351L252.311 416.456ZM262.487 383.88V380.88H260.281L259.623 382.985L262.487 383.88ZM273.027 382.902L257.475 428.022L263.147 429.978L278.699 384.858L273.027 382.902ZM260.311 426H244.247V432H260.311V426ZM247.082 428.019L231.466 382.899L225.796 384.861L241.412 429.981L247.082 428.019ZM228.631 386.88H242.071V380.88H228.631V386.88ZM239.209 384.78L249.449 417.356L255.173 415.556L244.933 382.98L239.209 384.78ZM255.175 417.351L265.351 384.775L259.623 382.985L249.447 415.561L255.175 417.351ZM262.487 386.88H275.863V380.88H262.487V386.88ZM308.572 405.832L307.769 402.941L307.911 408.758L308.572 405.832ZM314.844 409.8L312.444 411.6L312.465 411.628L312.486 411.656L314.844 409.8ZM313.244 425.736L315.149 428.053L315.149 428.053L313.244 425.736ZM279.772 429H276.772V432H279.772V429ZM279.772 383.88V380.88H276.772V383.88H279.772ZM312.22 386.952L310.364 389.31L310.374 389.317L310.383 389.324L312.22 386.952ZM314.076 402.248L311.717 400.395L311.711 400.402L314.076 402.248ZM292.316 401.8H289.316V404.8H292.316V401.8ZM292.316 393.864V390.864H289.316V393.864H292.316ZM303.068 411.784L301.067 414.02L301.096 414.045L301.125 414.07L303.068 411.784ZM292.316 410.696V407.696H289.316V410.696H292.316ZM292.316 418.888H289.316V421.888H292.316V418.888ZM307.911 408.758C309.906 409.209 311.362 410.158 312.444 411.6L317.244 408C315.253 405.346 312.528 403.65 309.232 402.906L307.911 408.758ZM312.486 411.656C313.64 413.121 314.212 414.768 314.212 416.712H320.212C320.212 413.451 319.205 410.49 317.201 407.944L312.486 411.656ZM314.212 416.712C314.212 419.778 313.201 421.887 311.338 423.419L315.149 428.053C318.577 425.233 320.212 421.326 320.212 416.712H314.212ZM311.338 423.419C309.407 425.007 306.462 426 302.108 426V432C307.31 432 311.789 430.817 315.149 428.053L311.338 423.419ZM302.108 426H279.772V432H302.108V426ZM282.772 429V383.88H276.772V429H282.772ZM279.772 386.88H301.404V380.88H279.772V386.88ZM301.404 386.88C305.598 386.88 308.463 387.814 310.364 389.31L314.075 384.594C310.77 381.994 306.425 380.88 301.404 380.88V386.88ZM310.383 389.324C312.207 390.736 313.188 392.692 313.188 395.592H319.188C319.188 391.068 317.523 387.264 314.056 384.58L310.383 389.324ZM313.188 395.592C313.188 397.678 312.644 399.214 311.717 400.395L316.434 404.101C318.323 401.698 319.188 398.797 319.188 395.592H313.188ZM311.711 400.402C310.772 401.605 309.504 402.459 307.769 402.941L309.374 408.723C312.247 407.925 314.648 406.39 316.44 404.094L311.711 400.402ZM292.316 404.8H298.652V398.8H292.316V404.8ZM298.652 404.8C300.567 404.8 302.561 404.417 304.112 403.139C305.773 401.769 306.388 399.829 306.388 397.896H300.388C300.388 398.249 300.333 398.422 300.31 398.479C300.299 398.507 300.293 398.513 300.296 398.51C300.299 398.505 300.301 398.504 300.295 398.509C300.267 398.532 299.894 398.8 298.652 398.8V404.8ZM306.388 397.896C306.388 395.952 305.794 393.989 304.148 392.588C302.595 391.265 300.585 390.864 298.652 390.864V396.864C299.875 396.864 300.233 397.135 300.259 397.156C300.26 397.157 300.273 397.161 300.298 397.226C300.33 397.308 300.388 397.511 300.388 397.896H306.388ZM298.652 390.864H292.316V396.864H298.652V390.864ZM289.316 393.864V401.8H295.316V393.864H289.316ZM299.612 421.888C301.536 421.888 303.538 421.496 305.09 420.196C306.744 418.81 307.348 416.858 307.348 414.92H301.348C301.348 415.289 301.292 415.477 301.264 415.547C301.257 415.564 301.251 415.576 301.248 415.582C301.245 415.588 301.243 415.591 301.242 415.591C301.242 415.592 301.242 415.592 301.242 415.592C301.242 415.591 301.242 415.591 301.242 415.591C301.242 415.592 301.242 415.592 301.241 415.593C301.24 415.593 301.239 415.595 301.237 415.596C301.21 415.619 300.844 415.888 299.612 415.888V421.888ZM307.348 414.92C307.348 412.885 306.68 410.917 305.01 409.498L301.125 414.07C301.162 414.101 301.348 414.224 301.348 414.92H307.348ZM305.068 409.548C303.517 408.161 301.519 407.696 299.548 407.696V413.696C300.648 413.696 300.997 413.957 301.067 414.02L305.068 409.548ZM299.548 407.696H292.316V413.696H299.548V407.696ZM289.316 410.696V418.888H295.316V410.696H289.316ZM292.316 421.888H299.612V415.888H292.316V421.888Z" fill="white"/>
</svg>
